<svg width="24" height="24" viewBox="0 0 24 24" fill="none" xmlns="http://www.w3.org/2000/svg">
<g clip-path="url(#clip0_396_403)">
<path d="M10.6018 1.09052C10.9663 -0.364482 13.0318 -0.364482 13.3978 1.09052L13.5043 1.51952C13.5666 1.76883 13.6945 1.99692 13.8747 2.18013C14.0549 2.36334 14.2808 2.49498 14.5291 2.56141C14.7773 2.62783 15.0388 2.62661 15.2865 2.55788C15.5341 2.48914 15.7588 2.3554 15.9373 2.17052L16.2448 1.85402C17.2873 0.775518 19.0768 1.80902 18.6643 3.25052L18.5443 3.67652C18.4736 3.92349 18.4703 4.18487 18.5347 4.43354C18.5991 4.68222 18.7289 4.90914 18.9105 5.09078C19.0922 5.27242 19.3191 5.40217 19.5677 5.46656C19.8164 5.53096 20.0778 5.52766 20.3248 5.45702L20.7493 5.33552C22.1893 4.92302 23.2243 6.71252 22.1458 7.75502L21.8293 8.06252C21.6444 8.24101 21.5106 8.46572 21.4419 8.71334C21.3732 8.96095 21.372 9.22246 21.4384 9.4707C21.5048 9.71895 21.6365 9.9449 21.8197 10.1251C22.0029 10.3053 22.231 10.4332 22.4803 10.4955L22.9093 10.602C24.3643 10.9665 24.3643 13.032 22.9093 13.398L22.4803 13.5045C22.231 13.5668 22.0029 13.6947 21.8197 13.8749C21.6365 14.0551 21.5048 14.2811 21.4384 14.5293C21.372 14.7776 21.3732 15.0391 21.4419 15.2867C21.5106 15.5343 21.6444 15.759 21.8293 15.9375L22.1458 16.245C23.2243 17.2875 22.1908 19.077 20.7493 18.6645L20.3233 18.5445C20.0763 18.4739 19.8149 18.4706 19.5662 18.535C19.3176 18.5994 19.0907 18.7291 18.909 18.9108C18.7274 19.0924 18.5976 19.3193 18.5332 19.568C18.4688 19.8167 18.4721 20.078 18.5428 20.325L18.6643 20.7495C19.0768 22.1895 17.2873 23.2245 16.2448 22.146L15.9373 21.8295C15.7588 21.6446 15.5341 21.5109 15.2865 21.4422C15.0388 21.3734 14.7773 21.3722 14.5291 21.4386C14.2808 21.5051 14.0549 21.6367 13.8747 21.8199C13.6945 22.0031 13.5666 22.2312 13.5043 22.4805L13.3978 22.9095C13.0333 24.3645 10.9678 24.3645 10.6018 22.9095L10.4953 22.4805C10.433 22.2312 10.3051 22.0031 10.1249 21.8199C9.94466 21.6367 9.71871 21.5051 9.47046 21.4386C9.22221 21.3722 8.96071 21.3734 8.71309 21.4422C8.46548 21.5109 8.24076 21.6446 8.06227 21.8295L7.75477 22.146C6.71227 23.2245 4.92277 22.191 5.33527 20.7495L5.45527 20.3235C5.52579 20.0767 5.52904 19.8155 5.4647 19.567C5.40036 19.3185 5.27076 19.0917 5.08933 18.9102C4.9079 18.7286 4.68122 18.5988 4.43278 18.5342C4.18433 18.4697 3.92315 18.4727 3.67627 18.543L3.25027 18.6645C1.81027 19.077 0.775274 17.2875 1.85377 16.245L2.17027 15.9375C2.35515 15.759 2.4889 15.5343 2.55763 15.2867C2.62637 15.0391 2.62759 14.7776 2.56116 14.5293C2.49474 14.2811 2.36309 14.0551 2.17988 13.8749C1.99668 13.6947 1.76858 13.5668 1.51927 13.5045L1.09027 13.398C-0.364727 13.0335 -0.364727 10.968 1.09027 10.602L1.51927 10.4955C1.76858 10.4332 1.99668 10.3053 2.17988 10.1251C2.36309 9.9449 2.49474 9.71895 2.56116 9.4707C2.62759 9.22246 2.62637 8.96095 2.55763 8.71334C2.4889 8.46572 2.35515 8.24101 2.17027 8.06252L1.85377 7.75502C0.775274 6.71252 1.80877 4.92302 3.25027 5.33552L3.67627 5.45552C3.92309 5.52603 4.18427 5.52928 4.43277 5.46494C4.68127 5.4006 4.90805 5.27101 5.08964 5.08958C5.27123 4.90814 5.40101 4.68147 5.46556 4.43302C5.53011 4.18458 5.52708 3.9234 5.45677 3.67652L5.33527 3.25052C4.92277 1.81052 6.71227 0.775518 7.75477 1.85402L8.06227 2.17052C8.24076 2.3554 8.46548 2.48914 8.71309 2.55788C8.96071 2.62661 9.22221 2.62783 9.47046 2.56141C9.71871 2.49498 9.94466 2.36334 10.1249 2.18013C10.3051 1.99692 10.433 1.76883 10.4953 1.51952L10.6018 1.09052ZM19.4593 12.75H12.3748L8.12377 18.4185C9.20659 19.0725 10.4373 19.4419 11.7013 19.4923C12.9653 19.5426 14.2215 19.2723 15.3529 18.7066C16.4843 18.1408 17.4542 17.2979 18.1721 16.2564C18.8901 15.2149 19.3329 14.0087 19.4593 12.75ZM19.4593 11.25C19.3329 9.99135 18.8901 8.78511 18.1721 7.74362C17.4542 6.70213 16.4843 5.85926 15.3529 5.29347C14.2215 4.72769 12.9653 4.4574 11.7013 4.50776C10.4373 4.55812 9.20659 4.92751 8.12377 5.58152L12.3748 11.2515L19.4593 11.25ZM6.92527 6.48302C6.16053 7.18399 5.55017 8.03657 5.13309 8.98643C4.71601 9.93629 4.50134 10.9626 4.50277 12C4.50277 14.1825 5.43577 16.1475 6.92527 17.517L11.0623 12L6.92527 6.48302Z" fill="white"/>
</g>
<defs>
<clipPath id="clip0_396_403">
<rect width="24" height="24" fill="white"/>
</clipPath>
</defs>
</svg>
