<svg width="32" height="32" viewBox="0 0 32 32" fill="none" xmlns="http://www.w3.org/2000/svg">
<rect width="32" height="32" rx="10" fill="#FF9A9A"/>
<path d="M15.48 14.96C13.0057 14.96 11 12.9542 11 10.48C11 8.00576 13.0057 6 15.48 6C17.9542 6 19.96 8.00576 19.96 10.48C19.96 12.9542 17.9542 14.96 15.48 14.96Z" fill="white"/>
<path d="M15.9997 16C15 16 14.855 15.8244 13.9055 16.2224L11.2133 17.3509C9.2238 18.1848 8.40646 20.5671 9.46508 22.4468C10.1041 23.5815 11.3052 24.2835 12.6075 24.2835L15.9997 24.0001C16 24.5001 15.9999 24.2835 16 23.0001C16 21.0001 16 20.0001 15.9997 18.5001V16Z" fill="white"/>
<path fill-rule="evenodd" clip-rule="evenodd" d="M21.5455 23.125C21.5455 23.2024 21.5215 23.2765 21.4789 23.3312C21.4363 23.3859 21.3785 23.4167 21.3182 23.4167H17.6818C17.6215 23.4167 17.5637 23.3859 17.5211 23.3312C17.4785 23.2765 17.4545 23.2024 17.4545 23.125V17.875C17.4545 17.7976 17.4785 17.7235 17.5211 17.6688C17.5637 17.6141 17.6215 17.5833 17.6818 17.5833H21.3182C21.3785 17.5833 21.4363 17.6141 21.4789 17.6688C21.5215 17.7235 21.5455 17.7976 21.5455 17.875V19.0417C21.5455 19.119 21.5694 19.1932 21.612 19.2479C21.6546 19.3026 21.7125 19.3333 21.7727 19.3333C21.833 19.3333 21.8908 19.3026 21.9334 19.2479C21.9761 19.1932 22 19.119 22 19.0417V17.875C22 17.6429 21.9282 17.4204 21.8003 17.2563C21.6724 17.0922 21.499 17 21.3182 17H17.6818C17.501 17 17.3276 17.0922 17.1997 17.2563C17.0718 17.4204 17 17.6429 17 17.875V23.125C17 23.3571 17.0718 23.5796 17.1997 23.7437C17.3276 23.9078 17.501 24 17.6818 24H21.3182C21.499 24 21.6724 23.9078 21.8003 23.7437C21.9282 23.5796 22 23.3571 22 23.125V21.9583C22 21.881 21.9761 21.8068 21.9334 21.7521C21.8908 21.6974 21.833 21.6667 21.7727 21.6667C21.7125 21.6667 21.6546 21.6974 21.612 21.7521C21.5694 21.8068 21.5455 21.881 21.5455 21.9583V23.125Z" fill="white" stroke="white" stroke-width="0.3"/>
<path fill-rule="evenodd" clip-rule="evenodd" d="M23.9471 20.6517C23.964 20.6318 23.9774 20.6081 23.9866 20.5821C23.9958 20.5561 24.0005 20.5282 24.0005 20.5C24.0005 20.4718 23.9958 20.4439 23.9866 20.4179C23.9774 20.3919 23.964 20.3682 23.9471 20.3483L22.8563 19.0628C22.8221 19.0226 22.7758 19 22.7275 19C22.6793 19 22.633 19.0226 22.5988 19.0628C22.5647 19.1031 22.5455 19.1576 22.5455 19.2145C22.5455 19.2714 22.5647 19.326 22.5988 19.3662L23.3795 20.2858H20.1823C20.1341 20.2858 20.0878 20.3083 20.0537 20.3485C20.0196 20.3887 20.0005 20.4432 20.0005 20.5C20.0005 20.5568 20.0196 20.6113 20.0537 20.6515C20.0878 20.6917 20.1341 20.7142 20.1823 20.7142H23.3795L22.5988 21.6338C22.5647 21.674 22.5455 21.7286 22.5455 21.7855C22.5455 21.8424 22.5647 21.8969 22.5988 21.9372C22.633 21.9774 22.6793 22 22.7275 22C22.7758 22 22.8221 21.9774 22.8563 21.9372L23.9471 20.6517Z" fill="white" stroke="white" stroke-width="0.3"/>
</svg>
