<svg width="26" height="32" viewBox="0 0 26 32" fill="none" xmlns="http://www.w3.org/2000/svg">
<path d="M11.59 8.932V3.5C11.59 2.57174 11.2281 1.6815 10.584 1.02513C9.93986 0.368749 9.06623 0 8.15528 0C7.24434 0 6.3707 0.368749 5.72657 1.02513C5.08243 1.6815 4.72056 2.57174 4.72056 3.5V14.18L2.36532 14.66C1.6434 14.8075 1.00191 15.2253 0.567377 15.831C0.132844 16.4367 -0.063192 17.1863 0.0179315 17.932L0.695062 24.144C0.782143 24.9381 1.05472 25.6994 1.48996 26.364L4.3025 30.664C4.57133 31.0749 4.93555 31.4119 5.36285 31.6449C5.79014 31.878 6.2673 32 6.75195 32H19.2838C19.8027 31.9998 20.3124 31.8599 20.7612 31.5944C21.2099 31.3288 21.5818 30.9472 21.8392 30.488L24.5772 25.606C25.0559 24.7526 25.3528 23.8061 25.4486 22.828L25.9805 17.398C26.0351 16.8419 25.9747 16.2804 25.8033 15.7496C25.6318 15.2187 25.3531 14.7304 24.9851 14.316C24.6172 13.9017 24.1681 13.5705 23.6668 13.3438C23.1655 13.1171 22.6232 13 22.0747 13H20.9344C20.812 12.8306 20.6844 12.6652 20.5517 12.504C20.1768 12.046 19.5507 11.368 18.8245 11.072C18.1101 10.78 17.1641 10.808 16.5517 10.856L16.2926 10.88C16.0837 10.3349 15.6951 9.88098 15.1935 9.596C14.7424 9.32973 14.2539 9.13548 13.7451 9.02C13.1366 8.896 12.2946 8.904 11.6842 8.928L11.59 8.932Z" fill="#678BFF"/>
</svg>
