<svg width="398" height="54" viewBox="0 0 398 54" fill="none" xmlns="http://www.w3.org/2000/svg">
<path d="M1.22509 0.404496H24.2092V28.7191H18.1395V5.74382H7.29484V28.7191H1.22509V0.404496ZM42.3952 29.1236C33.9785 29.1236 28.3539 23.2989 28.3539 14.5618C28.3539 5.82472 33.9785 0 42.3952 0C50.812 0 56.4366 5.82472 56.4366 14.5618C56.4366 23.2989 50.812 29.1236 42.3952 29.1236ZM42.3952 5.25843C37.7417 5.25843 34.6259 8.97978 34.6259 14.5618C34.6259 20.1438 37.7417 23.8652 42.3952 23.8652C47.0487 23.8652 50.1645 20.1438 50.1645 14.5618C50.1645 8.97978 47.0487 5.25843 42.3952 5.25843ZM57.6769 28.7191V23.0562C58.2029 23.1371 58.7694 23.1775 59.255 23.1775C61.3187 23.1775 62.6136 22.3685 62.7754 20.0225L64.2726 0.404496H83.1293V28.7191H77.0596V5.74382H69.695L68.5215 21.5595C68.1978 26.1708 65.5675 29.1236 60.9545 29.1236C59.862 29.1236 58.7694 28.9618 57.6769 28.7191ZM95.0443 28.7191H88.9745V0.404496H95.0443V16.6652L106.698 4.85394V0.404496H112.768V28.7191H106.698V12.4584L98.3624 20.9124C95.9345 23.3393 95.0443 24.8764 95.0443 28.7191ZM118.593 28.7191V0.404496H124.663V11.609H128.345L135.224 0.404496H142.022V0.566294L133.241 14.4809L136.478 19.173C137.733 21.0337 139.19 23.1371 141.577 23.1371C141.901 23.1371 142.225 23.0966 142.508 23.0562V28.8405C141.698 29.0427 140.889 29.1236 140.201 29.1236C135.548 29.1236 133.039 25.2405 130.611 21.3573L127.9 16.9483H124.663V28.7191H118.593ZM143.727 28.7191V23.0562C144.253 23.1371 144.819 23.1775 145.305 23.1775C147.369 23.1775 148.663 22.3685 148.825 20.0225L150.323 0.404496H169.179V28.7191H163.11V5.74382H155.745L154.571 21.5595C154.248 26.1708 151.617 29.1236 147.004 29.1236C145.912 29.1236 144.819 28.9618 143.727 28.7191ZM181.094 28.7191H175.024V0.404496H181.094V16.6652L192.748 4.85394V0.404496H198.818V28.7191H192.748V12.4584L184.412 20.9124C181.984 23.3393 181.094 24.8764 181.094 28.7191ZM204.643 0.404496H210.713V11.609H222.367V0.404496H228.436V28.7191H222.367V16.9483H210.713V28.7191H204.643V0.404496ZM240.331 28.7191H234.261V0.404496H240.331V16.6652L251.985 4.85394V0.404496H258.055V28.7191H251.985V12.4584L243.649 20.9124C241.221 23.3393 240.331 24.8764 240.331 28.7191ZM263.88 28.7191V0.404496H269.949V11.609H273.632L280.511 0.404496H287.309V0.566294L278.528 14.4809L281.765 19.173C283.02 21.0337 284.476 23.1371 286.864 23.1371C287.188 23.1371 287.511 23.0966 287.794 23.0562V28.8405C286.985 29.0427 286.176 29.1236 285.488 29.1236C280.835 29.1236 278.326 25.2405 275.898 21.3573L273.187 16.9483H269.949V28.7191H263.88ZM295.69 28.7191H289.823V27.5056C289.823 21.6404 291.967 14.9663 294.274 9.58652L298.24 0.404496H306.211L310.177 9.58652C312.888 15.8966 314.628 21.6404 314.628 27.5056V28.7191H308.558V27.5056C308.558 25.8067 308.396 24.1483 308.072 22.5303H296.176C295.893 24.1483 295.69 25.8067 295.69 27.5056V28.7191ZM297.632 17.191H306.656C305.968 15.0472 305.483 13.6315 304.673 11.7303L302.246 6.06742H302.084L299.656 11.7303C298.846 13.6315 298.361 15.0472 297.632 17.191ZM328.867 0.404496H336.353L344.204 15.3303C345.377 17.5146 346.106 19.8607 346.632 21.7618H346.753C346.51 19.7798 346.308 18.0809 346.308 15.6944V0.404496H352.135V28.7191H344.649L336.677 13.6315C335.544 11.4876 334.897 9.38427 334.371 7.3618H334.249C334.492 9.42472 334.694 11.164 334.694 13.6315V28.7191H328.867V0.404496ZM354.806 14.0764C354.806 9.22247 358.164 6.06742 363.182 6.06742C368.199 6.06742 371.558 9.22247 371.558 14.0764C371.558 18.9303 368.199 22.2472 363.182 22.2472C358.164 22.2472 354.806 18.9303 354.806 14.0764ZM356.303 24.2697H370.061V28.7191H356.303V24.2697ZM359.904 14.0764C359.904 16.6247 361.118 18.1213 363.182 18.1213C365.246 18.1213 366.459 16.6247 366.459 14.0764C366.459 11.5685 365.246 10.1933 363.182 10.1933C361.118 10.1933 359.904 11.5685 359.904 14.0764ZM373.58 23.6629V18.809L387.379 0.404496H394.703V18.3236H397.94V23.6629H394.703V28.7191H388.633V23.6629H373.58ZM380.621 18.3236H388.633V7.64495L380.621 18.3236ZM5.24022 47.0023L0 36.8899V36.809H3.4193L6.81836 43.5438L9.73184 36.809H12.9488V36.8899L6.59581 50.9663H3.37883V50.8854L5.24022 47.0023ZM14.4045 36.809H25.8966V50.9663H22.8617V39.4787H17.4394V50.9663H14.4045V36.809ZM28.8182 50.9663V36.809H34.5238C37.3968 36.809 39.2986 38.6494 39.2986 41.4C39.2986 44.1506 37.3968 45.991 34.5238 45.991H31.8531V50.9663H28.8182ZM34.1394 39.4787H31.8531V43.3214H34.1394C35.4545 43.3214 36.1626 42.6135 36.1626 41.4C36.1626 40.1865 35.4545 39.4787 34.1394 39.4787ZM42.4316 50.9663H39.4979V50.3596C39.4979 47.427 40.5703 44.0899 41.7235 41.4L43.7063 36.809H47.6921L49.6749 41.4C51.0305 44.5551 51.9005 47.427 51.9005 50.3596V50.9663H48.8656V50.3596C48.8656 49.5101 48.7847 48.6809 48.6228 47.8719H42.6744C42.5328 48.6809 42.4316 49.5101 42.4316 50.3596V50.9663ZM43.4028 45.2023H47.9147C47.5707 44.1303 47.3279 43.4225 46.9233 42.4719L45.7093 39.6405H45.6284L44.4144 42.4719C44.0098 43.4225 43.767 44.1303 43.4028 45.2023ZM59.7982 50.9663H53.9713V36.809H59.6364C62.2059 36.809 64.128 38.1034 64.128 40.4494C64.128 41.8045 63.5008 42.9371 62.2666 43.4427C63.7638 43.9281 64.8564 44.8989 64.8564 46.8202C64.8564 49.4494 62.7926 50.9663 59.7982 50.9663ZM59.3126 45.0405H57.0061V48.3775H59.3126C60.9919 48.3775 61.7406 47.8517 61.7406 46.6989C61.7406 45.5461 60.9919 45.0405 59.3126 45.0405ZM59.1103 39.3978H57.0061V42.4517H59.0901C60.4659 42.4517 61.0729 41.8652 61.0729 40.9146C61.0729 39.964 60.4861 39.3978 59.1103 39.3978ZM65.6687 50.9663V48.1348C65.9317 48.1753 66.215 48.1955 66.4578 48.1955C67.4896 48.1955 68.1371 47.791 68.218 46.618L68.9666 36.809H78.395V50.9663H75.3601V39.4787H71.6777L71.091 47.3865C70.9291 49.6921 69.614 51.1685 67.3075 51.1685C66.7612 51.1685 66.215 51.0876 65.6687 50.9663ZM81.3175 50.9663V36.809H90.7054V39.4787H84.3524V42.4112H89.4106V45.0809H84.3524V48.2966H90.9482V50.9663H81.3175ZM93.3215 36.809H96.3564V42.4112H102.183V36.809H105.218V50.9663H102.183V45.0809H96.3564V50.9663H93.3215V36.809ZM111.166 50.9663H108.131V36.809H111.166V44.9393L116.993 39.0337V36.809H120.027V50.9663H116.993V42.836L112.825 47.0629C111.611 48.2764 111.166 49.0449 111.166 50.9663ZM122.191 48.1348C122.313 48.1551 122.475 48.1753 122.636 48.1753C123.83 48.1753 124.579 47.1236 125.206 46.1933L125.692 45.4854C123.891 44.818 122.717 43.3618 122.717 41.2989C122.717 38.6697 124.619 36.809 127.492 36.809H133.339V50.9663H130.305V45.8697H129.03L128.14 47.2854C126.926 49.227 125.651 51.1685 123.365 51.1685C122.98 51.1685 122.555 51.1079 122.191 51.0067V48.1348ZM125.853 41.3393C125.853 42.4517 126.602 43.2 127.856 43.2H130.305V39.4787H127.856C126.602 39.4787 125.853 40.227 125.853 41.3393ZM140.041 54V48.2966H141.033C142.146 48.2966 142.49 47.5281 142.57 46.3753L143.299 36.809H152.727V48.2966H154.548V54H151.716L151.513 50.9663H143.076L142.874 54H140.041ZM145.504 46.2742C145.423 47.2652 145.261 47.7708 144.776 48.2966H149.692V39.4787H146.01L145.504 46.2742ZM156.718 50.9663V36.809H166.106V39.4787H159.753V42.4112H164.811V45.0809H159.753V48.2966H166.349V50.9663H156.718ZM167.467 50.9663V48.1348C167.73 48.1753 168.013 48.1955 168.256 48.1955C169.288 48.1955 169.935 47.791 170.016 46.618L170.765 36.809H180.193V50.9663H177.158V39.4787H173.476L172.889 47.3865C172.727 49.6921 171.412 51.1685 169.105 51.1685C168.559 51.1685 168.013 51.0876 167.467 50.9663ZM185.199 50.9663H182.266V50.3596C182.266 47.427 183.338 44.0899 184.491 41.4L186.474 36.809H190.46L192.443 41.4C193.798 44.5551 194.668 47.427 194.668 50.3596V50.9663H191.633V50.3596C191.633 49.5101 191.552 48.6809 191.391 47.8719H185.442C185.301 48.6809 185.199 49.5101 185.199 50.3596V50.9663ZM186.171 45.2023H190.682C190.338 44.1303 190.096 43.4225 189.691 42.4719L188.477 39.6405H188.396L187.182 42.4719C186.778 43.4225 186.535 44.1303 186.171 45.2023ZM196.739 36.809H201.19L203.497 43.3011C203.78 44.0899 204.083 45.1618 204.346 46.2539H204.427C204.69 45.1618 205.014 44.1101 205.297 43.3011L207.584 36.809H212.015V50.9663H208.98V42.8966C208.98 41.6831 209.02 40.9753 209.142 39.7618H209.061C208.858 40.9551 208.656 41.8247 208.352 42.6944L205.925 49.5506H202.708L200.28 42.6944C199.976 41.8247 199.774 40.9551 199.572 39.7618H199.491C199.612 40.9753 199.652 41.6831 199.652 42.8966V50.9663H196.739V36.809ZM217.962 50.9663H214.927V36.809H217.962V44.9393L223.789 39.0337V36.809H226.824V50.9663H223.789V42.836L219.621 47.0629C218.407 48.2764 217.962 49.0449 217.962 50.9663ZM234.785 36.809H246.277V50.9663H243.242V39.4787H237.82V50.9663H234.785V36.809ZM249.199 50.9663V36.809H254.904C257.777 36.809 259.679 38.6494 259.679 41.4C259.679 44.1506 257.777 45.991 254.904 45.991H252.234V50.9663H249.199ZM254.52 39.4787H252.234V43.3214H254.52C255.835 43.3214 256.543 42.6135 256.543 41.4C256.543 40.1865 255.835 39.4787 254.52 39.4787ZM261.341 50.9663V36.809H270.729V39.4787H264.376V42.4112H269.434V45.0809H264.376V48.2966H270.972V50.9663H261.341ZM277.462 51.1685C274.629 51.1685 271.999 49.8539 271.898 46.6989H274.933C275.034 48.0337 276.086 48.5798 277.482 48.5798C278.736 48.5798 279.91 48.1348 279.91 46.8C279.91 45.4449 278.696 45.0405 277.3 45.0405H275.459V42.4517H277.098C278.655 42.4517 279.586 41.8045 279.586 40.7528C279.586 39.8225 278.858 39.1955 277.543 39.1955C276.045 39.1955 275.236 39.964 275.135 41.0764H272.1C272.201 37.9011 274.953 36.6067 277.704 36.6067C280.153 36.6067 282.641 37.6382 282.641 40.2472C282.641 41.8045 281.731 42.9573 280.234 43.4022V43.4831C281.994 43.9281 283.046 45.0607 283.046 46.9011C283.046 49.9348 280.193 51.1685 277.462 51.1685ZM288.147 50.9663H285.112V36.809H288.147V44.9393L293.973 39.0337V36.809H297.008V50.9663H293.973V42.836L289.806 47.0629C288.592 48.2764 288.147 49.0449 288.147 50.9663ZM298.666 54V48.2966H299.658C300.771 48.2966 301.115 47.5281 301.195 46.3753L301.924 36.809H311.352V48.2966H313.173V54H310.341L310.138 50.9663H301.701L301.499 54H298.666ZM304.129 46.2742C304.048 47.2652 303.886 47.7708 303.401 48.2966H308.317V39.4787H304.635L304.129 46.2742ZM315.342 50.9663V36.809H324.73V39.4787H318.377V42.4112H323.435V45.0809H318.377V48.2966H324.973V50.9663H315.342ZM327.346 36.809H330.381V42.4112H336.208V36.809H339.243V50.9663H336.208V45.0809H330.381V50.9663H327.346V36.809ZM340.698 39.6405V36.809H351.826V39.6405H347.78V50.9663H344.745V39.6405H340.698ZM354.662 50.9663H351.728V50.3596C351.728 47.427 352.801 44.0899 353.954 41.4L355.937 36.809H359.922L361.905 41.4C363.261 44.5551 364.131 47.427 364.131 50.3596V50.9663H361.096V50.3596C361.096 49.5101 361.015 48.6809 360.853 47.8719H354.905C354.763 48.6809 354.662 49.5101 354.662 50.3596V50.9663ZM355.633 45.2023H360.145C359.801 44.1303 359.558 43.4225 359.154 42.4719L357.94 39.6405H357.859L356.645 42.4719C356.24 43.4225 355.997 44.1303 355.633 45.2023ZM371.251 50.9663V36.809H376.956C379.829 36.809 381.731 38.6494 381.731 41.4C381.731 44.1506 379.829 45.991 376.956 45.991H374.285V50.9663H371.251ZM376.572 39.4787H374.285V43.3214H376.572C377.887 43.3214 378.595 42.6135 378.595 41.4C378.595 40.1865 377.887 39.4787 376.572 39.4787ZM388.653 49.9146C384.606 49.5708 382.34 47.3461 382.34 43.8876C382.34 40.4292 384.606 38.2045 388.653 37.8607V36.6067H391.687V37.8607C395.734 38.2045 398 40.4292 398 43.8876C398 47.3461 395.734 49.5708 391.687 49.9146V51.1685H388.653V49.9146ZM391.687 40.1258V47.6494C393.771 47.3056 394.864 45.9303 394.864 43.8876C394.864 41.8449 393.771 40.4697 391.687 40.1258ZM388.653 40.1258C386.569 40.4697 385.476 41.8449 385.476 43.8876C385.476 45.9303 386.569 47.3056 388.653 47.6494V40.1258Z" fill="white"/>
</svg>
