<svg width="43" height="43" viewBox="0 0 43 43" fill="none" xmlns="http://www.w3.org/2000/svg">
<path d="M21.302 21C25.1119 21 28.2004 17.866 28.2004 14C28.2004 10.134 25.1119 7 21.302 7C17.4921 7 14.4036 10.134 14.4036 14C14.4036 17.866 17.4921 21 21.302 21Z" fill="black"/>
<path d="M19.0162 22.9722C20.4784 22.3503 22.1255 22.3503 23.5877 22.9722L27.7332 24.7354C30.7966 26.0384 32.0552 29.7608 30.4251 32.6978C29.4411 34.4707 27.5916 35.5676 25.5864 35.5676H17.0176C15.0123 35.5676 13.1628 34.4707 12.1788 32.6978C10.5487 29.7608 11.8073 26.0384 14.8708 24.7354L19.0162 22.9722Z" fill="black"/>
</svg>
