<svg width="35" height="23" viewBox="0 0 35 23" fill="none" xmlns="http://www.w3.org/2000/svg">
<path d="M8.78365 9.96358C11.525 9.96358 13.7472 7.7413 13.7472 4.99999C13.7472 2.25868 11.525 0.0364075 8.78365 0.0364075C6.04234 0.0364075 3.82007 2.25868 3.82007 4.99999C3.82007 7.7413 6.04234 9.96358 8.78365 9.96358Z" fill="#D4D4D4"/>
<path d="M26.5224 9.96358C29.2637 9.96358 31.486 7.7413 31.486 4.99999C31.486 2.25868 29.2637 0.0364075 26.5224 0.0364075C23.7811 0.0364075 21.5588 2.25868 21.5588 4.99999C21.5588 7.7413 23.7811 9.96358 26.5224 9.96358Z" fill="#D4D4D4"/>
<path d="M7.09294 12.4195C8.30321 11.9123 9.6666 11.9123 10.8769 12.4195L14.3082 13.8578C16.8439 14.9207 17.8856 17.9571 16.5364 20.3528C15.7219 21.799 14.191 22.6938 12.5312 22.6938H5.4386C3.77879 22.6938 2.24794 21.799 1.43345 20.3528C0.0841805 17.9571 1.12593 14.9207 3.66165 13.8578L7.09294 12.4195Z" fill="#D4D4D4"/>
<path d="M24.8317 12.4195C26.042 11.9123 27.4054 11.9123 28.6156 12.4195L32.0469 13.8578C34.5827 14.9207 35.6244 17.9571 34.2751 20.3528C33.4606 21.799 31.9298 22.6938 30.27 22.6938H23.1774C21.5176 22.6938 19.9867 21.799 19.1722 20.3528C17.823 17.9571 18.8647 14.9207 21.4004 13.8578L24.8317 12.4195Z" fill="#D4D4D4"/>
</svg>
